<svg width="1440" height="1024" viewBox="0 0 1440 1024" fill="none" xmlns="http://www.w3.org/2000/svg">
<g opacity="0.5">
<mask id="mask0_1_487" style="mask-type:alpha" maskUnits="userSpaceOnUse" x="-319" y="-176" width="1767" height="1200">
<path d="M-318.5 -136C-318.5 -158.091 -300.591 -176 -278.5 -176H1447.5V1024H-318.5V-136Z" fill="#EEF4FB"/>
</mask>
<g mask="url(#mask0_1_487)">
<g opacity="0.4">
<path opacity="0.5" d="M-447.089 852.902C-509.706 777.452 -529.488 681.181 -499.467 598.341C-457.081 481.486 -334.03 419.919 -190.707 399.559C-138.232 392.084 -84.3067 388.606 -33.6912 376.078C88.493 345.816 106.731 258.661 178.428 186.1C371.501 -9.40659 695.428 240.111 936.683 239.406C1093.68 238.952 1064.62 177.47 1102.61 57.2224C1088.53 57.2224 1148.74 -43.2884 1156.26 -49.618C1166.04 -94.7223 1283.3 -132.224 1290.37 -134.308C1400.67 -167.074 1535.45 -83.6848 1604.77 -5.31833C1681.42 81.3738 1707.92 292.952 1707.17 395.991C1706.58 478.233 1696.47 561.579 1655.28 634.522C1543.54 832.537 1476.78 1046.76 1312.39 1217.09C1276.9 1253.89 1011.88 1151.55 972.398 1185.51C871.978 1271.83 715.292 1300.34 564.757 1307.36C379.151 1316.02 179.164 1294.54 23.3685 1202.04C-76.4229 1142.8 -234.215 1097.49 -335.173 1039.63C-405.473 999.229 -399.066 910.753 -447.089 852.902Z" fill="url(#paint0_linear_1_487)"/>
<path opacity="0.5" d="M-148.762 1271.39C-222.559 1205.11 -257.24 1112.5 -240.536 1026.52C-216.935 905.229 -104.844 827.861 33.7728 788.555C84.5214 774.144 137.332 763.493 185.448 744.331C301.594 698.053 305.963 609.379 365.516 527.998C525.872 308.742 885.541 512.324 1124.14 479.373C1279.41 457.936 1241.01 400.987 1259.73 276.929C1245.79 278.812 1289.6 171.311 1296.04 164.044C1298.64 118.107 1408.78 65.324 1415.45 62.3181C1519.45 15.1507 1665.9 79.6424 1746.78 147.915C1836.22 223.447 1895.65 429.251 1911.08 531.304C1923.4 612.757 1926.47 696.576 1897.17 774.256C1817.68 985.121 1785.24 1206.01 1649.31 1396.52C1619.97 1437.68 1341.69 1371.85 1307.95 1410.72C1222.14 1509.56 1071.58 1558.71 923.733 1585.79C741.443 1619.17 540.194 1624.65 371.525 1553.95C263.491 1508.68 100.25 1484.94 -8.72203 1441.19C-84.6204 1410.61 -92.1667 1322.21 -148.762 1271.39Z" fill="url(#paint1_linear_1_487)"/>
</g>
</g>
</g>
<defs>
<linearGradient id="paint0_linear_1_487" x1="-158.716" y1="-136.264" x2="1306.02" y2="1170.62" gradientUnits="userSpaceOnUse">
<stop stop-color="#337FC9" stop-opacity="0.28"/>
<stop offset="1" stop-color="#61D1D6" stop-opacity="0.7"/>
</linearGradient>
<linearGradient id="paint1_linear_1_487" x1="-18.6615" y1="254.106" x2="1642.21" y2="1341.48" gradientUnits="userSpaceOnUse">
<stop stop-color="#61D1D6" stop-opacity="0.7"/>
<stop offset="1" stop-color="#337FC9" stop-opacity="0.54"/>
</linearGradient>
</defs>
</svg>
